<?xml version="1.0" encoding="UTF-8" standalone="no"?>
<svg
   version="1.1"
   width="1024"
   height="1024"
   id="svg72"
   sodipodi:docname="icebox.svg"
   inkscape:version="1.2.2 (03908c27, 2023-01-22)"
   xmlns:inkscape="http://www.inkscape.org/namespaces/inkscape"
   xmlns:sodipodi="http://sodipodi.sourceforge.net/DTD/sodipodi-0.dtd"
   xmlns="http://www.w3.org/2000/svg"
   xmlns:svg="http://www.w3.org/2000/svg">
  <defs
     id="defs76" />
  <sodipodi:namedview
     id="namedview74"
     pagecolor="#ffffff"
     bordercolor="#000000"
     borderopacity="0.25"
     inkscape:showpageshadow="2"
     inkscape:pageopacity="0.0"
     inkscape:pagecheckerboard="0"
     inkscape:deskcolor="#d1d1d1"
     showgrid="false"
     inkscape:zoom="1.0029297"
     inkscape:cx="463.14314"
     inkscape:cy="517.98247"
     inkscape:window-width="1904"
     inkscape:window-height="1205"
     inkscape:window-x="303"
     inkscape:window-y="31"
     inkscape:window-maximized="0"
     inkscape:current-layer="svg72" />
  <path
     d="m 570.28927,160.99849 c 4.13485,2.51517 8.3239,4.94046 12.50563,7.37831 0.94401,0.55137 1.88802,1.10276 2.86063,1.67086 11.06592,6.45997 22.15365,12.8832 33.24103,19.30703 4.4725,2.5914 8.94387,5.18471 13.4146,7.77911 21.08107,12.2331 42.17533,24.44173 63.35241,36.51171 12.55444,7.15922 25.06462,14.393 37.57518,21.62691 11.60809,6.71079 23.22864,13.39882 34.87791,20.03943 3.33185,1.90196 6.66353,3.80421 9.9952,5.70646 2.22443,1.26836 4.45004,2.53469 6.67681,3.79903 25.61131,14.54456 49.33898,28.1662 58.12267,57.89907 2.00103,7.78689 2.34452,15.24272 2.32317,23.25164 0.005,1.28862 0.009,2.57723 0.014,3.9049 0.0124,3.55149 0.0122,7.10289 0.0101,10.6544 -4.1e-4,3.84041 0.0109,7.68078 0.0206,11.52117 0.017,7.51507 0.0226,15.0301 0.0238,22.54519 9.8e-4,6.11332 0.005,12.22663 0.0117,18.33996 0.0181,17.35812 0.0275,34.71622 0.026,52.07435 -1.2e-4,1.40195 -1.2e-4,1.40195 -2.5e-4,2.83221 -8e-5,0.93578 -1.6e-4,1.87156 -2.5e-4,2.83569 -8.3e-4,15.15553 0.0188,30.31095 0.0477,45.46645 0.0295,15.58678 0.0436,31.17351 0.0418,46.76032 -6.8e-4,8.74062 0.005,17.48114 0.027,26.22174 0.0187,7.44368 0.023,14.88721 0.009,22.33092 -0.007,3.79168 -0.007,7.58307 0.011,11.37472 0.12925,29.19646 0.12925,29.19646 -4.61446,42.48397 -0.39806,1.13145 -0.79613,2.2629 -1.20624,3.42863 -2.79509,7.55244 -7.05385,13.64213 -12.11336,19.88422 -0.55735,0.71864 -1.11472,1.43726 -1.68896,2.17767 -10.16334,12.40859 -25.33824,19.60959 -39.09632,27.38854 -5.20706,2.95292 -10.3859,5.95327 -15.56687,8.95069 -2.04903,1.18278 -4.0982,2.36531 -6.14752,3.5476 -1.5215,0.87804 -1.5215,0.87804 -3.07374,1.77381 -9.22127,5.32141 -9.22127,5.32141 -12.29377,7.09447 -2.05337,1.18497 -4.1067,2.36998 -6.16002,3.55503 -5.05857,2.91944 -10.11753,5.83822 -15.17741,8.75544 -16.12794,9.2999 -32.23371,18.63701 -48.33558,27.98097 -23.67539,13.73891 -47.35266,27.47242 -71.14185,41.01799 -7.00964,3.99742 -13.98667,8.04486 -20.9427,12.13279 -8.14264,4.77186 -16.30331,9.51254 -24.50104,14.1912 -1.231,0.70392 -2.46056,1.41031 -3.68848,2.11946 -19.87998,11.47135 -40.5652,18.1331 -63.63888,13.65396 -13.12113,-3.47115 -25.00137,-10.45728 -36.54885,-17.3421 -5.93122,-3.53454 -11.94187,-6.93097 -17.94625,-10.34191 -9.17894,-5.22672 -18.3244,-10.50446 -27.4349,-15.84695 -7.81162,-4.58026 -15.63963,-9.13245 -23.47415,-13.67422 -0.63181,-0.36629 -1.26363,-0.73258 -1.91459,-1.10996 -11.54735,-6.69334 -23.10565,-13.36803 -34.66878,-20.03464 -5.09623,-2.93862 -10.19115,-5.87945 -15.28623,-8.82003 -2.04916,-1.18255 -4.09833,-2.36508 -6.1475,-3.54761 -20.4917,-11.82535 -40.9834,-23.65072 -61.47508,-35.47608 -1.52288,-0.87876 -1.52288,-0.87876 -3.07651,-1.77529 -2.04011,-1.17738 -4.08012,-2.35496 -6.11999,-3.53277 -5.26042,-3.03691 -10.52314,-6.0698 -15.78976,-9.09618 -6.02348,-3.46283 -12.03916,-6.93853 -18.04631,-10.42902 -0.72558,-0.42072 -1.45117,-0.84144 -2.19875,-1.27492 -20.50217,-11.94496 -34.74288,-26.61149 -41.85838,-49.4052 -0.40151,-1.23343 -0.80301,-2.46686 -1.2167,-3.73766 -1.98412,-8.00238 -2.00718,-15.87321 -2.00095,-24.06885 -0.003,-1.25791 -0.006,-2.51582 -0.009,-3.81186 -0.007,-3.47516 -0.0101,-6.95027 -0.0108,-10.42545 -0.002,-3.75475 -0.0101,-7.50949 -0.0166,-11.26423 -0.0138,-8.20341 -0.0201,-16.40681 -0.0246,-24.61023 -0.003,-5.12845 -0.007,-10.25691 -0.0118,-15.38536 -0.0125,-14.21669 -0.023,-28.43339 -0.0265,-42.65009 -2.2e-4,-0.90901 -4.4e-4,-1.81803 -6.7e-4,-2.75458 -2.2e-4,-0.91112 -4.5e-4,-1.82223 -6.8e-4,-2.76096 -4.5e-4,-1.84608 -9.1e-4,-3.69215 -0.001,-5.53822 -2.2e-4,-0.91571 -4.6e-4,-1.83142 -6.9e-4,-2.77487 -0.004,-14.82463 -0.0219,-29.64922 -0.0458,-44.47383 -0.0243,-15.2431 -0.0371,-30.48617 -0.0382,-45.72929 -9.4e-4,-8.54915 -0.007,-17.09824 -0.0255,-25.64737 -0.0159,-7.28235 -0.021,-14.56461 -0.0125,-21.84697 0.004,-3.70951 0.003,-7.41885 -0.0113,-11.12835 -0.10055,-27.3505 1.95102,-50.47601 21.14405,-71.74474 7.39431,-7.00156 15.43096,-12.4452 24.31788,-17.41337 1.05792,-0.60104 2.11584,-1.20208 3.20582,-1.82132 2.23528,-1.26931 4.4726,-2.5351 6.71183,-3.79754 4.47167,-2.52348 8.92968,-5.07005 13.38764,-7.61712 2.23263,-1.27553 4.46591,-2.54995 6.69982,-3.82328 8.44015,-4.81114 16.85689,-9.66093 25.26668,-14.52376 7.66582,-4.42916 15.35202,-8.82257 23.0449,-13.20554 8.51382,-4.85236 17.00911,-9.73233 25.47053,-14.67348 6.40107,-3.7378 12.81447,-7.45483 19.22698,-11.17338 0.96134,-0.55752 0.96134,-0.55752 1.94211,-1.1263 11.6443,-6.75225 23.30001,-13.48507 34.96144,-20.20835 4.0675,-2.34542 8.13414,-4.69231 12.20071,-7.0393 2.05494,-1.18595 4.10994,-2.37179 6.16502,-3.5575 5.09815,-2.94153 10.19544,-5.88448 15.29098,-8.83042 13.03638,-7.53453 26.09394,-15.03166 39.18235,-22.47742 3.47859,-1.97935 6.95024,-3.96842 10.40594,-5.98659 35.46967,-20.64251 67.64329,-13.15206 101.01515,7.36644 z"
     fill="#191d24"
     id="path4"
     style="stroke-width:1.01908" />
  <path
     d="M0 0 C9.61385651 -0.04512896 19.22764302 -0.08184572 28.84158134 -0.10362434 C33.30539755 -0.11407534 37.76913772 -0.12825844 42.23291016 -0.15087891 C46.53820674 -0.17256052 50.84343005 -0.1845587 55.14877701 -0.18975449 C56.79387694 -0.19345869 58.43897273 -0.20069177 60.0840416 -0.21146011 C62.38277704 -0.22591299 64.68120713 -0.22798058 66.97998047 -0.22705078 C68.2901413 -0.231492 69.60030212 -0.23593323 70.95016479 -0.24050903 C74 0 74 0 76 2 C76.48034055 5.58317908 76.37039028 9.20078454 76.375 12.8125 C76.39949219 13.81087891 76.42398437 14.80925781 76.44921875 15.83789062 C76.47865785 23.20257211 76.47865785 23.20257211 74.140625 27.09765625 C71.8975432 29.09105194 69.59126565 30.49979357 67 32 C64.84334912 35.23497632 64.6674926 36.51338267 64.39331055 40.29174805 C64.30931 41.38867981 64.22530945 42.48561157 64.13876343 43.61578369 C64.05558868 44.81894226 63.97241394 46.02210083 63.88671875 47.26171875 C63.74149302 49.20380177 63.59626635 51.14588473 63.45100403 53.08796501 C63.2965712 55.1756747 63.14650161 57.26365708 62.99771118 59.35177612 C62.6863508 63.72027398 62.36321336 68.08784842 62.0378418 72.45532227 C61.69938936 77.00491057 61.36161494 81.55454222 61.02784729 86.10447693 C59.94490372 100.85910214 58.79511934 115.60821649 57.63369751 130.35684204 C56.8435816 140.39067494 56.05995945 150.42501755 55.27700806 160.45941162 C54.99379184 164.07934978 54.70823074 167.69909871 54.42260742 171.31884766 C54.23999161 173.65136093 54.05745256 175.98388021 53.875 178.31640625 C53.79111526 179.37161972 53.70723053 180.42683319 53.62080383 181.51402283 C53.17998379 187.17801871 52.86310263 192.8216867 52.6875 198.5 C52.17593608 206.37987938 49.58128723 211.96698751 44.5 217.9375 C38.58576002 222.81674799 34.2648602 224.12223321 26.68925858 224.13422108 C25.38343803 224.13867892 24.07761748 224.14313676 22.73222661 224.14772969 C21.27959394 224.1476404 19.82696126 224.14745055 18.37432861 224.14717102 C16.83390165 224.15047041 15.29347556 224.15419614 13.75305057 224.1583125 C9.51334296 224.16833185 5.2736495 224.17204918 1.03393173 224.17470181 C-3.53607027 224.17860498 -8.10606106 224.18818321 -12.67605591 224.19691467 C-23.71493499 224.21667729 -34.75381498 224.2267444 -45.79270732 224.23564246 C-50.98982928 224.24002513 -56.18695021 224.24539194 -61.38407135 224.25063133 C-78.65759952 224.26764234 -95.93112706 224.28213736 -113.20466232 224.28938007 C-117.68722281 224.29128999 -122.16978329 224.29321032 -126.65234375 224.29516602 C-127.76647319 224.29564976 -128.88060262 224.2961335 -130.02849355 224.2966319 C-148.08387482 224.3049354 -166.1391899 224.33027829 -184.19454226 224.36274669 C-202.72691223 224.39580158 -221.25924854 224.41382736 -239.79164815 224.41702431 C-250.19885567 224.41919071 -260.60596663 224.42795855 -271.01314545 224.45348549 C-279.87464369 224.4751709 -288.73602192 224.48325349 -297.59754369 224.47351871 C-302.11905135 224.46896793 -306.64031129 224.47090539 -311.16178513 224.49028015 C-315.30219865 224.50786894 -319.44218293 224.50694914 -323.58260074 224.49138286 C-325.07925408 224.48900027 -326.5759368 224.49336407 -328.07254514 224.50521151 C-336.10874363 224.56487978 -342.19879252 224.51731349 -349 220 C-355.97298861 213.02701139 -357.86580131 205.20559268 -358.5090332 195.69238281 C-358.59630173 194.42762619 -358.68357025 193.16286957 -358.77348328 191.85978699 C-358.84104104 190.84709275 -358.84104104 190.84709275 -358.90996361 189.81394005 C-359.05370185 187.65934602 -359.20134199 185.50504902 -359.34992981 183.3507843 C-359.56270997 180.26033544 -359.77385819 177.16978159 -359.98370361 174.07913208 C-360.53540829 165.96223786 -361.1002649 157.84625787 -361.66796875 149.73046875 C-361.72454651 148.92100737 -361.78112427 148.11154598 -361.8394165 147.27755547 C-362.97379486 131.08232393 -364.25455891 114.90134218 -365.6159668 98.72363281 C-365.77534449 96.82748376 -365.93460723 94.93132504 -366.09375 93.03515625 C-366.20883659 91.66494827 -366.20883659 91.66494827 -366.32624817 90.26705933 C-366.87577625 83.65884737 -367.3716182 77.04775528 -367.84375 70.43359375 C-367.91077118 69.50229141 -367.97779236 68.57098907 -368.04684448 67.61146545 C-368.36030803 63.24614983 -368.6670307 58.88055857 -368.96142578 54.51391602 C-369.03348859 41.92614132 -369.03348859 41.92614132 -373.8125 31.125 C-374.534375 30.75375 -375.25625 30.3825 -376 30 C-380.93442623 27.13114754 -380.93442623 27.13114754 -382 25 C-382.09629223 23.27164535 -382.13075017 21.53962747 -382.1328125 19.80859375 C-382.13410156 18.78185547 -382.13539063 17.75511719 -382.13671875 16.69726562 C-382.13285156 15.62154297 -382.12898438 14.54582031 -382.125 13.4375 C-382.12886719 12.35791016 -382.13273437 11.27832031 -382.13671875 10.16601562 C-382.13542969 9.14056641 -382.13414062 8.11511719 -382.1328125 7.05859375 C-382.13168457 6.11298584 -382.13055664 5.16737793 -382.12939453 4.19311523 C-382 2 -382 2 -381 1 C-378.65746218 0.90507278 -376.34453896 0.87440209 -374.00170898 0.88647461 C-372.90421326 0.88625557 -372.90421326 0.88625557 -371.7845459 0.8860321 C-369.35503216 0.88673133 -366.92559417 0.89452415 -364.49609375 0.90234375 C-362.81600486 0.9042079 -361.13591543 0.90563181 -359.45582581 0.90663147 C-355.02526357 0.91045693 -350.5947339 0.92028744 -346.16418457 0.93133545 C-341.64657024 0.94154897 -337.12895066 0.94612896 -332.61132812 0.95117188 C-323.74086877 0.96190969 -314.87044219 0.97950671 -306 1 C-306 9.91 -306 18.82 -306 28 C-310.29 28.33 -314.58 28.66 -319 29 C-319.99 29.66 -320.98 30.32 -322 31 C-322.36558117 34.35503476 -322.36558117 34.35503476 -322.1875 38.125 C-322.16042969 39.40632813 -322.13335937 40.68765625 -322.10546875 42.0078125 C-322.05326172 43.48894531 -322.05326172 43.48894531 -322 45 C-305.44106645 48.44367202 -290.56961446 50.12635506 -273.75 47.75 C-272.93893799 47.64099365 -272.12787598 47.5319873 -271.29223633 47.41967773 C-267.78182117 46.85261924 -265.44087031 46.29935639 -262.46875 44.28125 C-260.53181722 41.27282248 -260.595733 39.29814111 -260.75 35.75 C-260.78609375 34.67234375 -260.8221875 33.5946875 -260.859375 32.484375 C-260.90578125 31.66453125 -260.9521875 30.8446875 -261 30 C-266.09901951 28.30032683 -271.64099317 28.41223129 -277 28 C-277 19.09 -277 10.18 -277 1 C-195.16 1 -113.32 1 -29 1 C-29 9.91 -29 18.82 -29 28 C-33.29 28.33 -37.58 28.66 -42 29 C-43.485 29.99 -43.485 29.99 -45 31 C-45.36558117 34.35503476 -45.36558117 34.35503476 -45.1875 38.125 C-45.16042969 39.40632813 -45.13335938 40.68765625 -45.10546875 42.0078125 C-45.07066406 42.99523437 -45.03585937 43.98265625 -45 45 C-25.11775226 49.32060405 -4.82484541 51.37313718 15 45 C16.37252731 42.25494537 16.13229255 39.99672588 16.125 36.9375 C16.12886719 35.31134766 16.12886719 35.31134766 16.1328125 33.65234375 C16.30118564 31.07756602 16.30118564 31.07756602 15 30 C12.47206606 29.76328017 9.97065034 29.5785675 7.4375 29.4375 C4.983125 29.293125 2.52875 29.14875 0 29 C0 19.43 0 9.86 0 0 Z "
     fill="#C8D3D7"
     transform="translate(665,463)"
     id="path6" />
  <path
     d="M0 0 C1.15556396 -0.0100708 2.31112793 -0.0201416 3.50170898 -0.03051758 C14.21243558 0.07716245 24.39369917 1.74505328 33.9375 6.75 C34.89861694 7.25007568 34.89861694 7.25007568 35.87915039 7.76025391 C38.16200981 8.96259334 40.42571764 10.19595629 42.6875 11.4375 C43.63802246 11.95844238 44.58854492 12.47938477 45.56787109 13.01611328 C57.95988867 19.83767596 70.22690727 26.8606864 82.390625 34.08007812 C86.998334 36.80317145 91.62562633 39.49284062 96.25 42.1875 C97.27077637 42.78264404 98.29155273 43.37778809 99.34326172 43.9909668 C103.44112065 46.38004743 107.53938532 48.76843152 111.63769531 51.15673828 C123.43190499 58.03040844 135.22125684 64.91235644 147 71.8125 C147.60875977 72.16911713 148.21751953 72.52573425 148.84472656 72.89315796 C157.70622449 78.0861375 166.54548626 83.31529007 175.375 88.5625 C186.31692978 95.06230912 197.3227796 101.44482787 208.35546875 107.7890625 C215.47446952 111.88474699 222.56552444 116.02764622 229.65576172 120.17285156 C235.84089269 123.78565698 242.04016775 127.37276408 248.24975586 130.94335938 C258.57688649 136.8822546 268.87160329 142.87241241 279.125 148.9375 C280.21981689 149.58380371 281.31463379 150.23010742 282.44262695 150.89599609 C302.91188915 163.03699331 302.91188915 163.03699331 309.25 169 C310.06041748 169.76026489 310.06041748 169.76026489 310.88720703 170.53588867 C327.34658099 186.48803628 336.57437214 207.73355562 337.14643192 230.57357788 C337.22553532 236.75423171 337.23195299 242.93285532 337.21039867 249.1137619 C337.20126259 252.99660475 337.21535984 256.87937843 337.22631836 260.76220703 C337.24401782 268.34810021 337.24030211 275.93383425 337.2286678 283.51973343 C337.21959976 289.69008937 337.21842397 295.86040101 337.22276306 302.03076172 C337.22337599 302.91208991 337.22398893 303.7934181 337.22462043 304.70145321 C337.22589945 306.49237698 337.22719631 308.28330073 337.2285108 310.07422447 C337.23989148 326.83092664 337.22684245 343.58754099 337.20530933 360.34422874 C337.18744064 374.69307144 337.19054546 389.04178464 337.20898438 403.390625 C337.23043561 420.09119291 337.23879308 436.79168403 337.22653532 453.49226379 C337.22526125 455.27625528 337.22400376 457.06024677 337.22276306 458.84423828 C337.22214596 459.72178237 337.22152886 460.59932646 337.22089306 461.50346279 C337.21745289 467.65971675 337.22323959 473.81592162 337.23268127 479.97216797 C337.24395005 487.48418138 337.24075942 494.9960278 337.2195583 502.50802231 C337.20911303 506.33391244 337.20481311 510.15952511 337.21815491 513.9854126 C337.31724474 544.99099921 331.92101462 569.63900818 309.6875 592.4375 C308.81158203 593.42363281 308.81158203 593.42363281 307.91796875 594.4296875 C297.56582873 605.80393755 281.23366256 612.85156378 268.09863281 620.45605469 C264.53613774 622.52542271 260.98141481 624.60754186 257.4296875 626.6953125 C256.81919556 627.05415024 256.20870361 627.41298798 255.57971191 627.78269958 C254.34093103 628.51090599 253.10216153 629.23913174 251.86340332 629.96737671 C242.06427544 635.72633026 232.23964299 641.43583208 222.35986328 647.05566406 C212.77450753 652.51334576 203.25692636 658.0864795 193.73583984 663.65527344 C188.72202576 666.58662398 183.70460033 669.51177882 178.6875 672.4375 C176.68748229 673.6041363 174.68748229 674.77080298 172.6875 675.9375 C160.6875 682.9375 160.6875 682.9375 157.68530273 684.6887207 C155.69255606 685.85119684 153.69987986 687.01379379 151.70727539 688.17651367 C146.59688138 691.15830839 141.48514452 694.13776195 136.37109375 697.11328125 C123.79925894 704.42227414 123.79925894 704.42227414 111.3125 711.875 C103.68770648 716.48718132 95.95679809 720.91396521 88.22949219 725.3515625 C82.17362646 728.8338151 76.13547644 732.34225791 70.125 735.90234375 C35.3258638 756.50851086 35.3258638 756.50851086 16.6875 761.4375 C15.79289062 761.68371094 14.89828125 761.92992187 13.9765625 762.18359375 C-14.01511617 768.5854761 -37.50399112 758.12592381 -61.0390625 744.14453125 C-66.85156869 740.69262891 -72.72551353 737.36285804 -78.625 734.0625 C-88.35146804 728.60204148 -97.95529678 722.94760294 -107.53955078 717.24316406 C-114.75233182 712.95090194 -121.98737586 708.70271048 -129.25854492 704.51025391 C-135.4769936 700.92471011 -141.6774875 697.30909784 -147.875 693.6875 C-156.2989637 688.76806713 -164.73654293 683.87291554 -173.1875 679 C-174.26789551 678.37697998 -175.34829102 677.75395996 -176.46142578 677.11206055 C-181.90039691 673.97699134 -187.34158318 670.84582145 -192.78515625 667.71875 C-204.90416812 660.75107384 -216.97185374 653.70477973 -228.98925781 646.56323242 C-237.31035638 641.61906314 -245.64874016 636.70551243 -254 631.8125 C-254.6034726 631.45877319 -255.20694519 631.10504639 -255.82870483 630.74060059 C-262.24217854 626.98178343 -268.66082599 623.23219078 -275.08984375 619.5 C-276.16210205 618.87689941 -277.23436035 618.25379883 -278.33911133 617.61181641 C-280.32082161 616.46098473 -282.30362815 615.31203743 -284.2878418 614.16552734 C-308.76804086 599.94895002 -328.71022503 583.39489366 -337.3125 555.4375 C-338.60863942 550.49056787 -339.51478382 545.48778951 -340.3125 540.4375 C-340.57245317 538.98566944 -340.57245317 538.98566944 -340.83765793 537.50450897 C-341.61077584 532.00767673 -341.4570248 526.46720688 -341.45294189 520.92785645 C-341.45739858 519.03590837 -341.45739858 519.03590837 -341.4619453 517.10573912 C-341.46998209 513.61602178 -341.47180301 510.12632504 -341.47254276 506.63659954 C-341.47439916 502.86816041 -341.4819495 499.09973182 -341.48867798 495.33129883 C-341.50223895 487.09543312 -341.50828274 478.85957229 -341.51268864 470.62369728 C-341.51545526 465.47613548 -341.51969341 460.32857555 -341.52419281 455.18101501 C-341.53638334 440.91495125 -341.54668257 426.64888898 -341.5500679 412.38282013 C-341.55028747 411.47037992 -341.55050703 410.55793971 -341.55073325 409.6178498 C-341.55095153 408.70328451 -341.55116981 407.78871922 -341.5513947 406.84643984 C-341.55183816 404.99332968 -341.55228472 403.14021953 -341.55273438 401.28710938 C-341.5529558 400.36791196 -341.55317723 399.44871455 -341.55340537 398.50166267 C-341.55735025 383.61980808 -341.57479576 368.73800255 -341.5980939 353.8561669 C-341.62184806 338.55889305 -341.63427163 323.26164376 -341.63543582 307.96435118 C-341.63635038 299.38295029 -341.6420472 290.80161331 -341.66025543 282.2202301 C-341.67571149 274.91039427 -341.68074464 267.60064209 -341.67251733 260.290793 C-341.66863 256.56638295 -341.6694456 252.84214107 -341.68357468 249.11775208 C-341.80525439 215.08747683 -341.80525439 215.08747683 -335.125 199.75 C-334.82384277 199.04286865 -334.52268555 198.3357373 -334.21240234 197.60717773 C-321.35570505 168.47655621 -294.77851424 155.41739527 -268.58642578 140.359375 C-260.2620528 135.57283026 -251.96788365 130.7371382 -243.6875 125.875 C-243.07847839 125.51744629 -242.46945679 125.15989258 -241.84197998 124.79150391 C-239.41179196 123.36474056 -236.98160574 121.93797414 -234.55151367 120.51104736 C-225.78972483 115.36756615 -217.00995161 110.25487514 -208.23193359 105.13916016 C-203.2579882 102.23997974 -198.2853183 99.33861308 -193.3125 96.4375 C-191.3125059 95.27082322 -189.31250591 94.10415654 -187.3125 92.9375 C-186.3225 92.36 -185.3325 91.7825 -184.3125 91.1875 C-155.8125 74.5625 -155.8125 74.5625 -127.3125 57.9375 C-126.32266113 57.36008057 -125.33282227 56.78266113 -124.31298828 56.18774414 C-122.31140789 55.02018272 -120.30978023 53.85270236 -118.30810547 52.68530273 C-113.33189608 49.78298584 -108.35649545 46.87930084 -103.3828125 43.97265625 C-88.72315297 35.4079357 -74.03538948 26.89309527 -59.3125 18.4375 C-58.06557373 17.71892822 -58.06557373 17.71892822 -56.79345703 16.98583984 C-52.3278163 14.41540599 -47.84274602 11.89249755 -43.3125 9.4375 C-42.39597656 8.93863281 -41.47945313 8.43976563 -40.53515625 7.92578125 C-27.6409664 1.46899144 -14.22518612 0.07997492 0 0 Z M-53.94921875 32.78125 C-59.41625542 36.14237842 -64.99566563 39.30802479 -70.5625 42.5 C-79.64828624 47.71987198 -88.68502302 53.01229776 -97.6875 58.375 C-106.9473534 63.88804919 -116.25751827 69.29772349 -125.625 74.625 C-135.77459243 80.39720006 -145.85848501 86.26956298 -155.8984375 92.23046875 C-164.66389864 97.43246111 -173.48066171 102.54698233 -182.2890625 107.67578125 C-185.27735966 109.41702417 -188.26397264 111.16111792 -191.25 112.90625 C-201.52269773 118.90845624 -211.81130999 124.88098503 -222.125 130.8125 C-232.26567362 136.64526777 -242.33541084 142.59028563 -252.38427734 148.57958984 C-259.78078415 152.97480311 -267.24006406 157.23957519 -274.75 161.4375 C-297.21540259 174.05172284 -315.95026748 187.94001024 -323.625 213.6875 C-326.16042104 222.80217818 -326.458804 231.50594142 -326.44621277 240.90449524 C-326.44847833 242.14905288 -326.45074388 243.39361053 -326.45307809 244.67588204 C-326.45829839 248.11406789 -326.45906553 251.55220127 -326.45788372 254.99038732 C-326.45767906 258.70487869 -326.46320461 262.41936235 -326.46794128 266.1338501 C-326.47623419 273.40495026 -326.4789955 280.67604231 -326.47955366 287.94714681 C-326.48002944 293.85933447 -326.48208727 299.77151947 -326.48525429 305.68370628 C-326.49405691 322.45866632 -326.49867424 339.23361997 -326.49792381 356.00858233 C-326.49788386 356.9122028 -326.4978439 357.81582327 -326.49780273 358.74682617 C-326.49776185 359.65155425 -326.49772097 360.55628233 -326.49767885 361.48842641 C-326.49727243 376.1498129 -326.50684216 390.8111737 -326.5209411 405.47255275 C-326.53531517 420.5393163 -326.54221073 435.60606733 -326.54134732 450.67283791 C-326.54101573 459.12664798 -326.54374657 467.58043112 -326.55452538 476.034235 C-326.56364391 483.2317942 -326.5657945 490.42931426 -326.55901595 497.62687675 C-326.55575766 501.2960803 -326.55566901 504.96520879 -326.5643692 508.63440514 C-326.57372095 512.61951111 -326.56744022 516.60444434 -326.55973816 520.58955383 C-326.56488172 521.73879485 -326.57002529 522.88803587 -326.57532471 524.07210237 C-326.48065091 546.29340766 -318.73862352 566.33737429 -303.3671875 582.48046875 C-293.08908474 592.27006853 -279.76181589 598.8220826 -267.50805664 605.76904297 C-261.13204719 609.38446565 -254.80372128 613.07256346 -248.5 616.8125 C-237.80911638 623.15297254 -227.07738939 629.42143973 -216.3359375 635.67578125 C-213.34764034 637.41702417 -210.36102736 639.16111792 -207.375 640.90625 C-198.18112406 646.27811443 -188.97953105 651.63511736 -179.74902344 656.94384766 C-168.54307369 663.38886865 -157.39342274 669.92095032 -146.28027344 676.5246582 C-129.44390326 686.5259683 -112.50026227 696.33981846 -95.53100586 706.11352539 C-89.60824829 709.52729683 -83.69805131 712.96000672 -77.8125 716.4375 C-48.97947277 735.06898146 -48.97947277 735.06898146 -17.3125 747.4375 C-16.56613281 747.62054687 -15.81976563 747.80359375 -15.05078125 747.9921875 C5.70017467 751.36680801 24.90390051 744.65009934 42.6875 734.4375 C43.86605195 733.77077128 45.04501551 733.10476968 46.22436523 732.43945312 C55.25873546 727.32559772 64.20079304 722.05455336 73.1171875 716.73828125 C79.16743247 713.13818014 85.26992623 709.63105535 91.375 706.125 C100.35392115 700.96410299 109.28704909 695.73254233 118.1875 690.4375 C127.08795793 685.1424535 136.02132031 679.91132489 145 674.75 C153.75335134 669.71807868 162.47255429 664.63446319 171.15844727 659.48706055 C178.74080742 654.9939865 186.33508218 650.52152526 193.9375 646.0625 C194.55192963 645.70207611 195.16635925 645.34165222 195.79940796 644.9703064 C204.44801271 639.89921362 213.12091209 634.87216657 221.8125 629.875 C231.81886891 624.12099451 241.76654489 618.27374963 251.68359375 612.3671875 C257.23731309 609.06217366 262.80304271 605.78303503 268.40625 602.5625 C270.02345947 601.63062866 270.02345947 601.63062866 271.67333984 600.67993164 C273.69120046 599.51971671 275.71212338 598.36480284 277.73681641 597.21655273 C283.79709464 593.72722073 289.26474603 589.84546157 294.6875 585.4375 C295.31358154 584.95708252 295.93966309 584.47666504 296.5847168 583.98168945 C310.94392423 572.94708146 319.13443525 553.94564934 321.6875 536.4375 C321.77505131 534.58362232 321.81817777 532.72722689 321.82172108 530.87128639 C321.82617892 529.78238786 321.83063676 528.69348933 321.83522969 527.57159388 C321.83504533 526.38600898 321.83486097 525.20042407 321.83467102 523.97891235 C321.84018605 522.0770536 321.84018605 522.0770536 321.8458125 520.13677347 C321.85579816 516.62392675 321.85954375 513.11109712 321.86220181 509.59823823 C321.86611517 505.80658387 321.87569286 502.0149429 321.88441467 498.22329712 C321.90415145 489.06880248 321.91424239 479.91430679 321.92314246 470.7597962 C321.9275305 466.44335233 321.93289602 462.12690968 321.93813133 457.81046677 C321.95514189 443.45180071 321.96963408 429.09313541 321.97688007 414.73446083 C321.97878981 411.01063664 321.98071017 407.28681245 321.98266602 403.56298828 C321.98314976 402.63750645 321.9836335 401.71202462 321.9841319 400.75849788 C321.99242482 385.78024172 322.01775005 370.80206562 322.05024669 355.82384439 C322.08337502 340.42828664 322.1013341 325.03276948 322.10452431 309.63717592 C322.10668422 301.00037252 322.1153564 292.36368581 322.14098549 283.72691727 C322.16277163 276.36839536 322.17070428 269.0100185 322.16101871 261.65146799 C322.15649659 257.9025874 322.15823691 254.15400557 322.17778015 250.40516663 C322.30211276 225.11373652 320.35282292 204.09328184 302.6875 184.4375 C302.18089844 183.83808594 301.67429687 183.23867188 301.15234375 182.62109375 C290.87057489 171.28748152 275.39005959 164.35895469 262.2265625 157.078125 C255.97611522 153.61491421 249.79062458 150.04917776 243.625 146.4375 C242.14471313 145.57064575 242.14471313 145.57064575 240.63452148 144.6862793 C238.64351285 143.51918115 236.65287052 142.35145789 234.66259766 141.18310547 C229.71691715 138.28128243 224.76503923 135.39009748 219.8125 132.5 C218.33511353 131.63761719 218.33511353 131.63761719 216.82788086 130.7578125 C209.46082112 126.46160687 202.07709228 122.19481045 194.6875 117.9375 C183.31268787 111.38421469 171.96720463 104.78193741 160.63330078 98.15820312 C157.71355681 96.45272032 154.7925684 94.74939123 151.87109375 93.046875 C137.99576284 84.96055875 124.13726658 76.84576459 110.28497314 68.72007751 C105.91489906 66.15679897 101.54364797 63.59553601 97.171875 61.03515625 C94.69785404 59.58604439 92.22389623 58.13682479 89.75 56.6875 C89.14437225 56.33269562 88.53874451 55.97789124 87.9147644 55.61233521 C80.8702018 51.48456313 73.83201377 47.34632411 66.80615234 43.18676758 C63.28006995 41.09929417 59.7514933 39.01606699 56.22216797 36.93408203 C54.51970866 35.92887344 52.81822397 34.92201254 51.11767578 33.91357422 C14.04824297 11.95569966 -16.80141072 9.84974122 -53.94921875 32.78125 Z "
     fill="#00B3D1"
     transform="translate(514.3125,130.5625)"
     id="path8" />
  <path
     d="M0 0 C1.67509644 0.02514673 3.35022979 0.04794851 5.02539062 0.06835938 C9.08035915 0.12277662 13.13350787 0.20868254 17.1875 0.3125 C17.43274414 0.98869385 17.67798828 1.6648877 17.93066406 2.36157227 C20.3371969 9.01897883 20.3371969 9.01897883 24.9375 14.25 C25.55109375 14.77464844 26.1646875 15.29929687 26.796875 15.83984375 C34.08779856 20.33114797 40.80794166 20.81646775 49.1875 21 C50.24839844 21.03416016 51.30929687 21.06832031 52.40234375 21.10351562 C54.99729001 21.18533825 57.59192636 21.25469995 60.1875 21.3125 C60.1968457 21.99763672 60.20619141 22.68277344 60.21582031 23.38867188 C60.2699191 26.53064435 60.35348824 29.67119067 60.4375 32.8125 C60.45167969 33.89015625 60.46585938 34.9678125 60.48046875 36.078125 C60.72217284 44.00601905 61.71866988 49.93261424 67.625 55.6875 C72.68336027 58.89524066 77.16022681 60.211596 83.1875 59.3125 C88.44799576 57.54627184 92.22188331 55.10311157 95.1875 50.3125 C97.72455971 44.52949624 97.62896187 38.64720666 97.8125 32.4375 C97.87050781 30.83261719 97.87050781 30.83261719 97.9296875 29.1953125 C98.02352452 26.56787592 98.10921557 23.94043829 98.1875 21.3125 C99.21520508 21.29062622 99.21520508 21.29062622 100.26367188 21.26831055 C103.40547974 21.19326568 106.54628992 21.0967931 109.6875 21 C110.76515625 20.97744141 111.8428125 20.95488281 112.953125 20.93164062 C122.29551888 20.61832864 129.41614552 19.08385448 136.1875 12.3125 C138.64811719 8.32460317 139.49196693 4.90046586 140.1875 0.3125 C145.50357806 0.18747465 150.81877217 0.09749998 156.13598633 0.0378418 C157.93887264 0.01293339 159.74166051 -0.02100659 161.54418945 -0.06469727 C175.99084731 -0.40570419 187.83472404 0.68549059 199.32421875 10.515625 C208.93935388 19.78808236 210.61427768 33.14740839 212.5546875 45.87890625 C212.86151103 47.81145954 213.16833568 49.74401265 213.4752121 51.67655754 C213.90262902 54.38379172 214.32124671 57.09236257 214.74036407 59.80089188 C215.28157893 63.28556415 215.8330727 66.76860525 216.38427734 70.25170898 C216.60491049 71.64655726 216.82552212 73.04140893 217.04611206 74.43626404 C217.20912119 75.4669592 217.20912119 75.4669592 217.37542343 76.51847649 C217.70196868 78.58642726 218.02720544 80.65457994 218.3520813 82.72279358 C219.58459607 90.56182716 220.84851376 98.39451446 222.171875 106.21875 C222.31630035 107.0731517 222.46072571 107.92755341 222.60952759 108.80784607 C223.13420777 111.9025864 223.66097234 114.99693553 224.19476318 118.09011841 C224.54191468 120.10249514 224.88438286 122.11567815 225.2265625 124.12890625 C225.41428223 125.21631104 225.60200195 126.30371582 225.79541016 127.42407227 C226.1875 130.3125 226.1875 130.3125 226.1875 135.3125 C129.1675 135.3125 32.1475 135.3125 -67.8125 135.3125 C-64.36357392 108.8707334 -64.36357392 108.8707334 -62.69140625 98.2578125 C-62.50537338 97.06227753 -62.31934052 95.86674255 -62.12767029 94.63497925 C-61.5460959 90.90206689 -60.96059503 87.16978346 -60.375 83.4375 C-59.98868282 80.9596743 -59.60261438 78.4818098 -59.21679688 76.00390625 C-58.45892479 71.1397199 -57.69476392 66.27658114 -56.92626953 61.4140625 C-56.17791417 56.67211829 -55.45179473 51.92750564 -54.74169922 47.1796875 C-54.56863754 46.04473846 -54.39557587 44.90978943 -54.2172699 43.740448 C-53.89297185 41.61355628 -53.5754661 39.4856126 -53.26625061 37.35647583 C-51.6497142 26.88174447 -47.8947706 17.59948291 -39.69140625 10.46875 C-26.63681591 1.13460784 -15.53588451 -0.41010154 0 0 Z "
     fill="#879AA7"
     id="path10"
     transform="translate(432.8125,551.6875)" />
  <path
     d="M0 0 C1.66294067 -0.00461278 3.32587725 -0.01096822 4.98880535 -0.01890898 C9.54411097 -0.03557389 14.09908045 -0.02736885 18.65438712 -0.0149641 C23.57268948 -0.00590424 28.49093453 -0.01988804 33.40922546 -0.03088379 C43.03877998 -0.04866397 52.66820973 -0.04483112 62.29776912 -0.03323323 C70.12499677 -0.0241967 77.95218948 -0.02297586 85.77942085 -0.02732849 C86.89378479 -0.02794142 88.00814874 -0.02855436 89.15628128 -0.02918586 C91.42016117 -0.03046478 93.68404105 -0.03176163 95.94792093 -0.03307623 C117.17336744 -0.0444807 138.39874484 -0.03137066 159.62418003 -0.00987476 C177.83128017 0.00799363 196.03827829 0.00489397 214.24537659 -0.0135498 C235.39374457 -0.03496308 256.54205196 -0.04337948 277.69042927 -0.03110075 C279.94624872 -0.02982657 282.20206818 -0.02856909 284.45788765 -0.02732849 C285.56776208 -0.02671139 286.6776365 -0.02609429 287.82114349 -0.02545848 C295.63724114 -0.02200678 303.45330032 -0.02783013 311.26939201 -0.0372467 C320.79717463 -0.04847323 330.32482545 -0.04541292 339.852593 -0.02412373 C344.71258264 -0.01362181 349.57235267 -0.00947689 354.43234062 -0.02272034 C358.88415907 -0.0346679 363.33555499 -0.02804277 367.78733528 -0.00681013 C369.39490092 -0.00235405 371.00250249 -0.00458795 372.61004489 -0.01431328 C382.45804977 -0.06930629 391.30188961 0.23950866 399.30665588 6.58605957 C400.20577698 7.6611377 400.20577698 7.6611377 401.12306213 8.75793457 C401.74052307 9.46434082 402.35798401 10.17074707 402.99415588 10.89855957 C407.87293485 18.42517469 408.50597683 26.32850893 409.37306213 35.07043457 C409.50261292 36.26346191 409.6321637 37.45648926 409.76564026 38.68566895 C410.36288971 44.37059893 410.68556213 49.76626343 410.68556213 55.50793457 C386.92556213 55.50793457 363.16556213 55.50793457 338.68556213 55.50793457 C338.35556213 47.25793457 338.02556213 39.00793457 337.68556213 30.50793457 C333.1832088 26.00558123 332.54631274 25.97975376 326.77540588 25.91223145 C325.92075745 25.92318848 325.06610901 25.93414551 324.18556213 25.94543457 C323.3309137 25.92158691 322.47626526 25.89773926 321.59571838 25.87316895 C320.35628479 25.87606934 320.35628479 25.87606934 319.09181213 25.87902832 C318.34222229 25.87830322 317.59263245 25.87757813 316.82032776 25.87683105 C313.89393186 26.52076916 313.89393186 26.52076916 310.68556213 31.50793457 C310.35556213 39.42793457 310.02556213 47.34793457 309.68556213 55.50793457 C227.84556213 55.50793457 146.00556213 55.50793457 61.68556213 55.50793457 C61.19056213 43.13293457 61.19056213 43.13293457 60.68556213 30.50793457 C56.91881272 26.35921741 56.91881272 26.35921741 52.27931213 25.97668457 C51.45302307 25.97152832 50.62673401 25.96637207 49.77540588 25.96105957 C48.49343323 25.9842627 48.49343323 25.9842627 47.18556213 26.00793457 C46.3309137 25.99246582 45.47626526 25.97699707 44.59571838 25.96105957 C43.35628479 25.96879395 43.35628479 25.96879395 42.09181213 25.97668457 C41.34222229 25.98119629 40.59263245 25.98570801 39.82032776 25.99035645 C37.02817228 26.471211 37.02817228 26.471211 33.68556213 30.50793457 C33.35556213 38.75793457 33.02556213 47.00793457 32.68556213 55.50793457 C8.92556213 55.50793457 -14.83443787 55.50793457 -39.31443787 55.50793457 C-37.09754143 17.82069507 -37.09754143 17.82069507 -27.58396912 6.33215332 C-19.27744002 -0.34452325 -10.18095814 -0.06149989 0 0 Z "
     fill="#C8D2D7"
     transform="translate(326.31443786621094,389.4920654296875)"
     id="path12" />
  <path
     d="M0 0 C5.41368302 1.61631543 9.56967704 5.38568826 13.9375 8.828125 C19.42933127 13.11300005 19.42933127 13.11300005 25.859375 15.5234375 C31.2112819 14.10972624 35.25254155 10.81417186 38.90625 6.69140625 C43.76268215 1.76473644 47.97164775 1.25267422 54.65576172 1.16943359 C59.1675949 1.23025926 63.66752749 1.38182138 68.171875 1.6484375 C63.11750715 15.43494493 57.62907689 29.00543277 52.171875 42.6484375 C16.531875 42.6484375 -19.108125 42.6484375 -55.828125 42.6484375 C-68.59598214 11.30915179 -68.59598214 11.30915179 -71.828125 1.6484375 C-51.35625426 -0.53986717 -51.35625426 -0.53986717 -43.01391602 5.89160156 C-40.17275454 8.37837929 -37.48867892 10.96865993 -34.828125 13.6484375 C-31.83631083 15.14434459 -30.1865044 15.07586761 -26.828125 14.6484375 C-22.59159254 12.41477934 -18.84198156 9.46478954 -15.12109375 6.46875 C-6.093982 -0.62668609 -6.093982 -0.62668609 0 0 Z "
     fill="#8FA3B0"
     transform="translate(513.828125,319.3515625)"
     id="path14" />
  <path
     d="M0 0 C3.84455101 1.10509458 5.49091858 2.24709584 8.30540466 5.04397583 C9.18256134 5.90221954 10.05971802 6.76046326 10.9634552 7.64471436 C11.88663544 8.58003998 12.80981567 9.5153656 13.76097107 10.47903442 C14.73418793 11.44820482 15.70829359 12.41648344 16.6832428 13.38391113 C18.71856416 15.41040881 20.74269513 17.44730274 22.75950623 19.49221802 C25.33846871 22.10536589 27.94344089 24.69064304 30.55742455 27.26870155 C32.57242359 29.2619614 34.57284212 31.26936455 36.56921768 33.28126144 C37.98649222 34.70445338 39.41580406 36.11562538 40.84529114 37.52655029 C47.9375816 44.7751323 47.9375816 44.7751323 48.70872498 48.96096802 C48.48753357 52.00247192 48.48753357 52.00247192 46.42503357 54.93997192 C42.88836197 57.42316687 41.72341247 57.6873413 37.48753357 57.00247192 C34.85964157 55.19735704 32.74923485 52.96258246 30.55784607 50.65872192 C29.92265045 50.01503662 29.28745483 49.37135132 28.63301086 48.7081604 C26.61164942 46.65326889 24.61216433 44.57849415 22.61253357 42.50247192 C21.24413414 41.10397288 19.87435726 39.70682021 18.50315857 38.31106567 C15.14844577 34.89027339 11.81320068 31.45149933 8.48753357 28.00247192 C8.48388794 28.87055481 8.48024231 29.7386377 8.47648621 30.63302612 C8.43861852 38.81418542 8.38177997 46.99494558 8.30363083 55.17582321 C8.26412244 59.3817272 8.23195067 63.58742077 8.21653748 67.79348755 C8.2013927 71.85267774 8.16698688 75.9112896 8.11922455 79.97022247 C8.10438807 81.51870955 8.09649125 83.06727918 8.09564972 84.6158371 C8.09328494 86.7853815 8.06624933 88.95332122 8.03343201 91.12258911 C8.02010834 92.97457916 8.02010834 92.97457916 8.0065155 94.86398315 C7.39025481 98.59075498 6.50561049 99.79032855 3.48753357 102.00247192 C-0.35980282 102.55209141 -2.50388328 102.73643011 -5.69709778 100.41268921 C-8.15691004 97.14686107 -8.02991908 95.00674275 -8.05836487 90.93899536 C-8.06870255 90.23615417 -8.07904022 89.53331299 -8.08969116 88.80917358 C-8.1191167 86.49316411 -8.12061819 84.17802863 -8.12184143 81.86184692 C-8.13682337 80.25328912 -8.15355055 78.6447467 -8.17195129 77.03622437 C-8.21563607 72.80792535 -8.23562623 68.57983383 -8.25068665 64.35134888 C-8.27025379 60.03441085 -8.31222419 55.71769705 -8.35231018 51.40090942 C-8.42762444 42.93482224 -8.47790834 34.46882309 -8.51246643 26.00247192 C-9.61823233 27.09460509 -10.72200679 28.18875474 -11.82496643 29.28372192 C-12.43984924 29.89280396 -13.05473206 30.50188599 -13.68824768 31.12942505 C-15.37820514 32.86461691 -16.95685007 34.64705089 -18.51246643 36.50247192 C-22.25211043 40.84389771 -26.28113014 44.88468 -30.32496643 48.93997192 C-30.99592346 49.61544067 -31.66688049 50.29090942 -32.35816956 50.98684692 C-32.99303284 51.61977661 -33.62789612 52.2527063 -34.28199768 52.90481567 C-34.85538879 53.47707886 -35.42877991 54.04934204 -36.01954651 54.63894653 C-38.1989296 56.62943788 -39.41246477 56.99160218 -42.38746643 57.31497192 C-45.51246643 57.00247192 -45.51246643 57.00247192 -47.88746643 55.43997192 C-50.12523348 52.08332136 -49.90202697 49.98160309 -49.51246643 46.00247192 C-47.81323242 43.40762329 -47.81323242 43.40762329 -45.40089417 40.9692688 C-44.50253342 40.04561523 -43.60417267 39.12196167 -42.67858887 38.1703186 C-41.68537428 37.18631479 -40.69117336 36.20330567 -39.69606018 35.22122192 C-38.68054422 34.19844593 -37.66599615 33.17470809 -36.65237427 32.15005493 C-34.52749101 30.01036441 -32.39025283 27.88405435 -30.2436676 25.7661438 C-27.49619017 23.05297802 -24.78399745 20.30738271 -22.08035183 17.55062103 C-19.99356395 15.43100738 -17.88825026 13.33060015 -15.77697945 11.23539734 C-14.76906259 10.23029753 -13.76717549 9.21911263 -12.77158928 8.20179749 C-11.37699176 6.78211852 -9.9539031 5.39059871 -8.52980042 4.0005188 C-7.32733925 2.80308044 -7.32733925 2.80308044 -6.10058594 1.58145142 C-3.51246643 0.00247192 -3.51246643 0.00247192 0 0 Z "
     fill="#02B1CA"
     transform="translate(512.5124664306641,496.9975280761719)"
     id="path16" />
  <path
     d="M0 0 C51.30576999 -0.0457333 102.61153792 -0.08099673 153.91732427 -0.10213066 C159.96832038 -0.10463221 166.01931645 -0.10722084 172.0703125 -0.10986328 C173.27500563 -0.1103879 174.47969876 -0.11091252 175.72089775 -0.11145304 C195.251696 -0.12016622 214.78248254 -0.1359412 234.31327383 -0.15430559 C254.33936252 -0.17297928 274.36544504 -0.18411135 294.39154208 -0.18817699 C306.7582524 -0.19092732 319.1249296 -0.19962778 331.49162973 -0.21583293 C339.96089791 -0.22636861 348.43014885 -0.22960842 356.89942311 -0.22700275 C361.7927375 -0.22571611 366.68599383 -0.22774967 371.57929802 -0.23841095 C376.05252268 -0.24808634 380.5256498 -0.24867244 384.99887879 -0.24179779 C386.62340087 -0.24094713 388.24792885 -0.24353244 389.87243919 -0.24976636 C392.06844938 -0.2577083 394.26410018 -0.25351843 396.46010399 -0.24609566 C398.29529234 -0.24723482 398.29529234 -0.24723482 400.16755521 -0.24839699 C403 0 403 0 405 2 C404 3 404 3 401.28534168 3.1241985 C400.05846529 3.12381878 398.83158891 3.12343906 397.56753445 3.12304783 C396.88427763 3.12420167 396.20102082 3.12535552 395.49705926 3.12654433 C393.17879683 3.12921759 390.86060213 3.12468305 388.54234314 3.12025452 C386.87506057 3.12069007 385.20777807 3.12156469 383.54049593 3.12284368 C378.93651081 3.12509169 374.33254871 3.12106321 369.72856653 3.11606562 C364.77216424 3.11176566 359.81576336 3.11320722 354.85935974 3.1139679 C346.26460904 3.11449342 337.66986591 3.11134365 329.07511711 3.10573006 C316.64840037 3.0976189 304.2216873 3.09500023 291.7949682 3.09374207 C271.63568961 3.09155094 251.47641506 3.08488921 231.31713867 3.07543945 C211.72892273 3.0662669 192.14070789 3.0591853 172.55249023 3.05493164 C171.34600674 3.05466892 170.13952325 3.05440619 168.89647966 3.05413551 C162.84418551 3.05283052 156.79189136 3.0515668 150.7395972 3.05032361 C100.49306201 3.0399491 50.2465312 3.02232914 0 3 C0 2.01 0 1.02 0 0 Z "
     fill="#C3CCD1"
     transform="translate(310,390)"
     id="path18" />
  <path
     d="M0 0 C5.75 -0.125 5.75 -0.125 8 1 C8 2.32 8 3.64 8 5 C5.29120665 6.35439668 2.99066732 6.06501451 0 6 C0 4.02 0 2.04 0 0 Z "
     fill="#81939F"
     transform="translate(522,644)"
     id="path44" />
  <path
     d="M0 0 C1.38294718 0.01329757 2.76582404 0.03715018 4.1484375 0.0703125 C4.85484375 0.07933594 5.56125 0.08835937 6.2890625 0.09765625 C8.03399848 0.12123647 9.77876045 0.15710789 11.5234375 0.1953125 C11.5234375 0.5253125 11.5234375 0.8553125 11.5234375 1.1953125 C7.2334375 1.1953125 2.9434375 1.1953125 -1.4765625 1.1953125 C-2.4665625 5.1553125 -3.4565625 9.1153125 -4.4765625 13.1953125 C-4.8065625 13.1953125 -5.1365625 13.1953125 -5.4765625 13.1953125 C-5.53048243 11.40397272 -5.56931821 9.61217351 -5.6015625 7.8203125 C-5.62476563 6.82257813 -5.64796875 5.82484375 -5.671875 4.796875 C-5.35500335 0.57614462 -4.10384475 0.23055308 0 0 Z "
     fill="#0B0D10"
     transform="translate(347.4765625,491.8046875)"
     id="path48" />
  <path
     d="M0 0 C0.66 0.33 1.32 0.66 2 1 C2 3.97 2 6.94 2 10 C1.01 10 0.02 10 -1 10 C-1.125 2.25 -1.125 2.25 0 0 Z "
     fill="#BCC7CB"
     transform="translate(718,617)"
     id="path58" />
  <path
     d="M0 0 C0.66 0.33 1.32 0.66 2 1 C-1.07999946 4.67230705 -3.2482602 5.56802365 -8 6 C-5.54080489 3.3651481 -3.42227589 1.25483449 0 0 Z "
     fill="#1C1115"
     transform="translate(259,281)"
     id="path62" />
  <path
     d="M0 0 C0 3 0 3 -1.3125 4.60546875 C-1.869375 5.12753906 -2.42625 5.64960937 -3 6.1875 C-3.556875 6.71730469 -4.11375 7.24710938 -4.6875 7.79296875 C-5.120625 8.19128906 -5.55375 8.58960938 -6 9 C-6.66 8.67 -7.32 8.34 -8 8 C-5.58443874 4.80800833 -3.31996462 2.25283313 0 0 Z "
     fill="#8093A2"
     transform="translate(395,561)"
     id="path64" />
  <text
     xml:space="preserve"
     style="font-size:40px;fill:#000000"
     x="437.71762"
     y="668.04285"
     id="text290"><tspan
       sodipodi:role="line"
       id="tspan288"
       x="437.71762"
       y="668.04285"
       style="font-style:normal;font-variant:normal;font-weight:normal;font-stretch:normal;font-size:40px;font-family:'Arial Black';-inkscape-font-specification:'Arial Black, '">ICEBOX</tspan></text>
</svg>
